<svg width="391.5" height="142.5" viewBox="0 0 261 95" fill="none" xmlns="http://www.w3.org/2000/svg">
<path d="M133.264 13.4905V41.2613H127.829V23.2511L120.013 36.1464H119.377L111.56 23.2917V41.2613H106.084V13.4905H111.718L119.692 26.6204L127.626 13.4905H133.264Z" fill="white"/>
<path d="M141.713 33.4447C142.385 35.9435 144.252 37.1749 147.306 37.1749C149.25 37.1749 150.756 36.4983 151.749 35.1903L155.876 37.5718C153.932 40.3908 151.036 41.8161 147.229 41.8161C143.936 41.8161 141.32 40.8238 139.336 38.8392C137.351 36.8546 136.359 34.3558 136.359 31.3429C136.359 28.366 137.351 25.8672 139.295 23.8826C141.239 21.8574 143.779 20.8696 146.832 20.8696C149.728 20.8696 152.15 21.8619 154.013 23.8826C155.916 25.9078 156.868 28.366 156.868 31.3429C156.868 32.0194 156.787 32.6915 156.669 33.4447H141.713ZM151.749 29.4801C151.153 26.7828 149.169 25.4748 146.828 25.4748C144.09 25.4748 142.227 26.9452 141.632 29.4801H151.749Z" fill="white"/>
<path d="M174.558 21.4244H179.677V41.2613H174.558V38.9204C173.011 40.8644 170.868 41.8161 168.09 41.8161C165.433 41.8161 163.169 40.8238 161.265 38.7986C159.403 36.7734 158.446 34.2747 158.446 31.3429C158.446 28.4111 159.398 25.9484 161.265 23.9232C163.169 21.898 165.433 20.8696 168.09 20.8696C170.868 20.8696 173.011 21.8213 174.558 23.7653V21.4244ZM169.046 36.9358C170.634 36.9358 171.942 36.4216 172.974 35.3887C174.043 34.3198 174.562 32.9666 174.562 31.3429C174.562 29.7146 174.048 28.366 172.974 27.3376C171.942 26.2686 170.634 25.7499 169.046 25.7499C167.458 25.7499 166.15 26.2641 165.117 27.3376C164.084 28.3705 163.57 29.7191 163.57 31.3429C163.57 32.9711 164.084 34.3198 165.117 35.3887C166.15 36.4216 167.458 36.9358 169.046 36.9358Z" fill="white"/>
<path d="M183.524 41.2614V12.2998H188.644V41.2614H183.524Z" fill="white"/>
<path d="M200.7 29.2411C203.596 29.8365 207.367 31.2257 207.326 35.4701C207.326 37.4952 206.573 39.0784 205.026 40.1925C203.519 41.2615 201.616 41.8208 199.352 41.8208C195.265 41.8208 192.487 40.2331 191.021 37.0983L195.464 34.5995C196.059 36.3045 197.327 37.1795 199.352 37.1795C201.179 37.1795 202.09 36.6247 202.09 35.4746C202.09 34.4056 200.502 33.8102 198.481 33.2915C195.545 32.5383 191.855 31.3069 191.855 27.1799C191.855 25.2359 192.568 23.6888 193.998 22.5792C195.464 21.4291 197.25 20.8743 199.392 20.8743C202.604 20.8743 205.382 22.3808 206.929 25.078L202.563 27.4595C201.927 26.1109 200.858 25.4343 199.388 25.4343C198.08 25.4343 197.088 26.0703 197.088 27.0626C197.092 28.1316 198.68 28.7269 200.7 29.2411Z" fill="white"/>
<path d="M124.456 51.3872V56.6238H116.959V79.158H111.484V56.6238H104.023V51.3872H124.456Z" fill="white"/>
<path d="M132.313 79.7128C129.377 79.7128 126.878 78.7206 124.853 76.6954C122.828 74.6702 121.84 72.1714 121.84 69.2396C121.84 66.3033 122.832 63.8451 124.853 61.8199C126.878 59.7947 129.377 58.7664 132.313 58.7664C135.249 58.7664 137.748 59.7993 139.773 61.8199C141.799 63.8451 142.827 66.3033 142.827 69.2396C142.827 72.1759 141.794 74.6747 139.773 76.6954C137.748 78.7206 135.245 79.7128 132.313 79.7128ZM132.313 74.7153C133.86 74.7153 135.132 74.2011 136.16 73.1682C137.193 72.1353 137.708 70.8273 137.708 69.2396C137.708 67.6519 137.193 66.3439 136.16 65.311C135.128 64.2781 133.86 63.7639 132.313 63.7639C130.766 63.7639 129.494 64.2781 128.466 65.311C127.473 66.3439 126.959 67.6519 126.959 69.2396C126.959 70.8273 127.473 72.1353 128.466 73.1682C129.494 74.1966 130.761 74.7153 132.313 74.7153Z" fill="white"/>
<path d="M160.833 59.3211H165.83V78.2064C165.83 81.2599 164.797 83.6009 162.777 85.2291C160.751 86.8574 158.334 87.6467 155.479 87.6467C151.194 87.6467 147.82 85.9824 146.074 82.807L150.441 80.3082C151.433 82.171 153.178 83.0867 155.637 83.0867C158.848 83.0867 160.833 81.3411 160.833 78.2064V76.0639C159.326 78.0891 157.224 79.0814 154.486 79.0814C151.667 79.0814 149.331 78.0891 147.423 76.1451C145.56 74.1605 144.604 71.7429 144.604 68.9239C144.604 66.1048 145.556 63.7278 147.459 61.7433C149.363 59.7587 151.703 58.7664 154.482 58.7664C157.22 58.7664 159.322 59.7587 160.828 61.7793V59.3211H160.833ZM159.245 65.072C158.212 64.0391 156.904 63.5249 155.276 63.5249C153.647 63.5249 152.339 64.0391 151.27 65.072C150.238 66.0643 149.723 67.3723 149.723 68.9194C149.723 72.0947 152.064 74.3544 155.276 74.3544C158.487 74.3544 160.828 72.0947 160.828 68.9194C160.833 67.3768 160.318 66.0643 159.245 65.072Z" fill="white"/>
<path d="M174.003 71.3415C174.675 73.8403 176.542 75.0716 179.596 75.0716C181.54 75.0716 183.046 74.395 184.039 73.087L188.166 75.4685C186.222 78.2876 183.326 79.7128 179.519 79.7128C176.226 79.7128 173.61 78.7206 171.626 76.736C169.641 74.7514 168.649 72.2526 168.649 69.2396C168.649 66.2627 169.641 63.7639 171.585 61.7793C173.529 59.7541 176.069 58.7664 179.122 58.7664C182.018 58.7664 184.44 59.7587 186.303 61.7793C188.206 63.8045 189.158 66.2627 189.158 69.2396C189.158 69.9162 189.077 70.5882 188.959 71.3415H174.003ZM184.039 67.3768C183.443 64.6796 181.459 63.3715 179.118 63.3715C176.38 63.3715 174.517 64.8419 173.922 67.3768H184.039Z" fill="white"/>
<path d="M202.685 64.242H198.202V72.4916C198.202 74.6341 199.749 74.6747 202.685 74.5168V79.1581C195.662 79.9519 193.087 77.9267 193.087 72.4916V64.242H189.636V59.3212H193.087V55.3159L198.206 53.7688V59.3212H202.689V64.242H202.685Z" fill="white"/>
<path d="M221.886 60.9493C223.316 62.4152 224.028 64.3998 224.028 66.9798V79.158H218.909V67.6113C218.909 64.9546 217.362 63.5248 214.98 63.5248C212.324 63.5248 210.619 65.1531 210.619 68.4457V79.158H205.5V51.3872H210.619V61.5447C211.85 59.6819 213.83 58.7663 216.532 58.7663C218.711 58.7663 220.497 59.4789 221.886 60.9493Z" fill="white"/>
<path d="M231.921 71.3415C232.593 73.8403 234.461 75.0716 237.514 75.0716C239.458 75.0716 240.965 74.395 241.957 73.087L246.084 75.4685C244.14 78.2876 241.244 79.7128 237.438 79.7128C234.145 79.7128 231.529 78.7206 229.544 76.736C227.56 74.7514 226.567 72.2526 226.567 69.2396C226.567 66.2627 227.56 63.7639 229.504 61.7793C231.448 59.7541 233.987 58.7664 237.041 58.7664C239.936 58.7664 242.358 59.7587 244.221 61.7793C246.125 63.8045 247.076 66.2627 247.076 69.2396C247.076 69.9162 246.995 70.5882 246.878 71.3415H231.921ZM241.957 67.3768C241.362 64.6796 239.377 63.3715 237.036 63.3715C234.298 63.3715 232.435 64.8419 231.84 67.3768H241.957Z" fill="white"/>
<path d="M254.97 62.7355C255.922 60.1961 258.303 58.9287 261 58.9287V64.6434C259.453 64.445 258.024 64.7607 256.797 65.5951C255.565 66.4296 254.97 67.7782 254.97 69.6816V79.1625H249.851V59.3256H254.97V62.7355Z" fill="white"/>
<path d="M47.1555 4.0456C51.49 4.0456 55.784 4.46958 59.9065 5.30401C62.4594 5.8182 66.2211 6.73382 69.4055 8.7094C76.8477 13.3236 80.623 19.8908 80.623 28.2261C80.623 31.7172 80.2621 35.2669 79.6667 38.1987C79.1886 36.8049 78.7015 35.5149 78.2595 34.3783C74.0512 23.5803 63.7629 16.3005 50.7323 14.9113C49.5821 14.7895 48.3823 14.7263 47.1645 14.7263C38.2203 14.7263 28.374 17.9332 20.828 23.3097C15.2306 27.3014 11.2343 32.1456 8.95205 37.707C6.99903 42.4746 6.29089 47.8149 6.83665 53.6108C3.10201 46.4798 -0.122958 36.7914 3.49893 28.3524C7.68011 18.6143 15.8305 11.348 27.066 7.34273C33.1235 5.18674 40.0696 4.0456 47.1555 4.0456ZM77.7002 62.0454C77.407 62.97 77.0507 63.9217 76.6267 64.914C72.9958 73.3576 65.6573 81.747 56.4966 87.9308C54.4714 89.2975 51.3818 91.2099 47.9448 92.0488C46.6097 92.3736 45.1754 92.5405 43.687 92.5405C38.4368 92.5405 33.0378 90.5559 27.6478 86.6408L27.2238 86.3296C20.7559 81.5124 15.6591 74.5618 12.4837 66.3619C18.7172 73.4207 27.4584 77.9808 38.5 79.9248C42.7623 80.678 46.1136 81.0253 49.0363 81.0253C53.867 81.0253 57.9399 80.0375 61.4897 78.0033C65.31 75.8112 68.3816 72.3968 71.6382 68.7749C72.1839 68.166 72.7432 67.5481 73.307 66.9257C73.8212 66.3619 74.3264 65.8341 74.8135 65.329C75.8464 64.2465 76.8297 63.2271 77.7002 62.0454ZM47.1555 2.12866C39.9207 2.12866 32.7537 3.28334 26.421 5.54307C14.6713 9.73327 6.13302 17.3604 1.73534 27.5991C-2.74352 38.0318 2.13226 50.5618 8.57317 60.3043C11.2704 71.2918 17.1881 81.2373 26.0782 87.8586L26.5157 88.1789C33.3851 93.1674 39.3614 94.4484 43.687 94.4484C45.6039 94.4484 47.1961 94.1958 48.4004 93.9026C52.1395 92.996 55.4276 90.9618 57.5746 89.514C66.4737 83.5106 74.394 74.9678 78.3948 65.6672C82.5534 55.9924 80.438 49.0869 79.5405 44.7433C79.563 44.5945 79.6307 44.4231 79.7299 44.2336C81.5025 40.9185 82.5534 34.3558 82.5534 28.2261C82.5534 19.787 78.927 12.3493 70.4294 7.08113C66.9789 4.94318 62.9962 3.96892 60.2989 3.42316C56.0005 2.55715 51.5667 2.12866 47.1555 2.12866ZM49.0363 79.0993C45.8926 79.0993 42.5097 78.6754 38.8337 78.0259C27.5441 76.0368 18.7848 71.2331 12.7949 63.7413C11.7666 62.4558 10.7562 61.0801 9.79099 59.6458C9.52036 58.5137 9.29033 57.368 9.1054 56.2089C6.97197 43.0023 11.293 32.4614 21.9466 24.8703C29.1994 19.7104 38.7616 16.6433 47.1735 16.6433C48.3192 16.6433 49.4423 16.7019 50.5383 16.8147C62.8428 18.1272 72.5403 24.9515 76.4824 35.0684C77.7047 38.2077 78.8323 41.4462 79.5405 44.7388C79.342 46.1731 79.3555 49.5063 79.2563 50.9993C78.6925 59.6278 75.7427 61.4094 71.8952 65.6221C71.3224 66.2491 70.7676 66.867 70.2129 67.4804C67.0646 70.9806 64.0922 74.2912 60.538 76.3254C57.0334 78.3371 53.2491 79.0993 49.0363 79.0993Z" fill="#75C8B5"/>
<path d="M66.1266 69.9659C58.1341 75.3875 47.7195 77.787 37.5665 76.5422C32.5283 75.9242 27.0661 74.5576 22.1362 72.3159C23.53 73.8269 25.1312 75.2567 26.9444 76.6053C35.6946 83.1229 46.7723 86.0321 57.3718 84.6068L57.8409 84.5392C68.1969 83.0192 72.8291 77.9494 74.6739 75.0537C76.4284 72.2933 77.2628 69.0864 77.7319 66.9169C78.6566 62.6726 79.0445 58.2388 78.9272 53.8772C76.8163 60.2234 72.5179 65.6314 66.1266 69.9659Z" fill="#F05523"/>
<path d="M80.0275 38.0048C78.1962 25.4793 71.4621 14.0138 61.5527 6.549C57.4076 3.42327 49.1219 -1.52018 40.2454 0.450887C36.6415 1.25375 33.3895 3.16617 31.2515 4.54186C22.181 10.3693 14.387 18.8896 9.87656 27.9105C4.71211 38.2439 3.87317 48.7532 7.44995 58.3108C9.86303 64.7472 15.5191 69.3118 22.1314 72.3158C16.0829 65.7576 13.936 57.6703 15.7537 48.1939C17.3368 39.9263 22.2713 32.0375 29.2895 26.5483C37.4489 20.1705 49.6 14.9114 59.2253 19.291C65.3866 22.0965 70.2578 26.7197 73.6993 33.0433C74.7908 35.0505 75.7335 37.2335 76.5003 39.5384C77.9752 43.9631 78.7826 48.875 78.9179 53.8771C79.0216 53.5704 79.1209 53.2636 79.2156 52.9524C80.5507 48.4555 80.8213 43.4264 80.0275 38.0048Z" fill="#75C8B5"/>
</svg>
