<?xml version="1.0" encoding="iso-8859-1"?>
<!-- Generator: Adobe Illustrator 19.0.0, SVG Export Plug-In . SVG Version: 6.00 Build 0)  -->
<svg version="1.1" id="Layer_1" xmlns="http://www.w3.org/2000/svg" xmlns:xlink="http://www.w3.org/1999/xlink" x="0px" y="0px"
	 viewBox="0 0 512 512" style="enable-background:new 0 0 512 512;" xml:space="preserve">
<g>
	<g>
		<path d="M448.011,132.493c4.143,0,7.5-3.358,7.5-7.5v-23.481c0-11.802-9.601-21.402-21.401-21.402h-98.224
			c-0.204-11.626-9.71-21.024-21.384-21.024H285.51V21.402C285.51,9.601,275.909,0,264.109,0h-16.22
			c-11.801,0-21.401,9.602-21.401,21.402v37.681h-28.992c-11.675,0-21.18,9.399-21.384,21.024H77.89
			c-11.801,0-21.401,9.602-21.401,21.402v232.846c0,11.802,9.602,21.402,21.401,21.402h59.187L87.311,474.914
			c-4.56,10.917,0.584,23.437,11.5,27.997c16.204,6.768,17.847,7.907,23.209,7.907c0.001,0,0,0,0.001,0
			c8.661,0,16.415-5.163,19.756-13.157l21.799-52.196h62.91v45.134c0,11.801,9.602,21.401,21.401,21.401h16.22
			c11.801,0,21.401-9.602,21.401-21.401v-45.134h62.353l21.799,52.194c2.201,5.276,6.327,9.379,11.616,11.551
			c2.624,1.078,5.378,1.617,8.133,1.617c2.796,0,5.591-0.556,8.248-1.665l14.967-6.251c5.275-2.203,9.378-6.328,11.55-11.617
			c2.172-5.287,2.154-11.105-0.049-16.38l-25.463-60.97c-1.598-3.823-5.993-5.627-9.813-4.03c-3.822,1.597-5.626,5.989-4.03,9.812
			l25.463,60.97c0.659,1.578,0.665,3.317,0.015,4.9c-0.649,1.581-1.875,2.814-3.453,3.473c-16.037,6.698-16.692,7.568-19.867,6.266
			c-1.581-0.649-2.814-1.875-3.473-3.454l-56.852-136.119h31.45l16.756,40.115c1.598,3.823,5.99,5.625,9.812,4.03
			c3.822-1.597,5.626-5.989,4.03-9.813l-14.342-34.334h59.751c11.801,0,21.401-9.602,21.401-21.402V150.993
			c0-4.142-3.357-7.5-7.5-7.5c-4.142,0-7.5,3.358-7.5,7.5v183.364c0,3.529-2.871,6.401-6.4,6.401c-4.537,0-286.933,0-291.627,0
			v-49.595c0-11.801-9.602-21.401-21.401-21.401H71.487V101.511c0-3.53,2.871-6.401,6.4-6.401h98.201
			c0,12.886,10.093,21.84,21.403,21.84h117.007c11.606,0,21.403-9.251,21.403-21.84h98.205c3.529,0,6.4,2.872,6.4,6.401v23.481
			C440.511,129.135,443.869,132.493,448.011,132.493z M270.508,490.598L270.508,490.598c0,3.529-2.871,6.4-6.4,6.4h-16.22
			c-3.529,0-6.4-2.871-6.4-6.4v-45.134h29.021V490.598z M330.095,402.927l11.501,27.537c-85.107,0-127.701,0-171.754,0
			l11.501-27.537C189.134,402.927,322.281,402.927,330.095,402.927z M285.509,355.76h24.887l13.435,32.166h-38.321V355.76z
			 M241.488,355.76h29.021v32.166h-29.021V355.76z M201.041,355.76h25.445v32.166h-38.879L201.041,355.76z M153.332,355.759h31.453
			v0.001c-10.308,24.682-42.474,101.699-56.849,136.118c-1.368,3.272-5.112,4.807-8.378,3.44
			c-16.046-6.702-17.116-6.553-18.419-9.725C99.699,482.091,97.126,490.339,153.332,355.759z M121.081,284.762L121.081,284.762
			c3.529,0.001,6.4,2.872,6.4,6.401v38.986l-45.387-45.388H121.081z M71.489,295.372l45.386,45.387H77.89
			c-3.529,0-6.4-2.872-6.4-6.401V295.372z M241.488,21.402c0-3.53,2.871-6.401,6.4-6.401h16.22c3.529,0,6.4,2.872,6.4,6.401v37.681
			h-29.021V21.402z M320.904,95.547c0,3.53-2.872,6.401-6.402,6.401H197.495c-3.53,0-6.402-2.872-6.402-6.401
			c0-8.436,0-6.589,0-15.061c0-3.53,2.872-6.401,6.402-6.401c11.514,0,105.52,0,117.007,0c3.53,0,6.402,2.872,6.402,6.401
			C320.904,88.96,320.904,87.107,320.904,95.547z"/>
	</g>
</g>
<g>
</g>
<g>
</g>
<g>
</g>
<g>
</g>
<g>
</g>
<g>
</g>
<g>
</g>
<g>
</g>
<g>
</g>
<g>
</g>
<g>
</g>
<g>
</g>
<g>
</g>
<g>
</g>
<g>
</g>
</svg>
